#!OML:ASF F:\VICON\USERDATA\INSTALL\rory3\rory3.ASF
:FULLY-SPECIFIED
:DEGREES
607
root 1.95004 28.4833 -1.45301 -167.942 -14.9728 -179.676
lowerback 8.24367 -1.98963 -3.22782
upperback 1.78104 -2.98613 1.56567
thorax -2.52366 -1.51351 3.73932
lowerneck -16.235 2.33157 -8.27739
upperneck 38.6049 1.54282 2.30464
head 16.4969 -1.47857 2.4141
rclavicle 8.67198e-015 -3.08116e-015
rhumerus -2.26061 3.53168 -79.9896
rradius 96.512
rwrist -6.33983
rhand -28.4295 -11.3858
rfingers 7.12502
rthumb -1.80069 -41.3579
lclavicle 8.67198e-015 -3.08116e-015
lhumerus 3.07706 -10.7348 81.6289
lradius 78.2426
lwrist 21.8722
lhand -20.3304 25.0708
lfingers 7.12502
lthumb 6.02088 54.9652
rfemur -30.5216 -3.34561 24.149
rtibia 35.1943
rfoot -10.2908 -6.25312
rtoes 14.0317
lfemur -39.2131 14.871 -25.2762
ltibia 46.3121
lfoot 4.81965 -15.0671
ltoes -13.7573
608
root 1.97939 28.509 -1.45885 -167.947 -15.4186 -179.89
lowerback 8.21926 -1.95028 -3.31525
upperback 1.79896 -2.94215 1.46329
thorax -2.4964 -1.49156 3.67621
lowerneck -16.3545 2.25985 -8.03047
upperneck 38.6804 1.37483 2.31182
head 16.5819 -1.50645 2.34853
rclavicle -3.00413e-014 -4.96962e-015
rhumerus -2.70399 3.24498 -79.9886
rradius 96.7256
rwrist -6.37354
rhand -28.9112 -11.3612
rfingers 7.12502
rthumb -2.26598 -41.3289
lclavicle -3.00413e-014 -4.96962e-015
lhumerus 4.30263 -11.1674 81.362
lradius 78.7049
lwrist 22.0069
lhand -20.809 25.9339
lfingers 7.12502
lthumb 5.55873 55.841
rfemur -30.1619 -3.71084 24.0822
rtibia 34.6741
rfoot -10.2221 -6.35135
rtoes 13.7511
lfemur -39.6993 14.8858 -25.1828
ltibia 47.5991
lfoot 4.69461 -15.2178
ltoes -15.452
609
root 2.0069 28.5323 -1.46367 -168.031 -15.9151 -179.92
lowerback 8.29695 -2.10034 -3.32829
upperback 1.74348 -3.14037 1.61161
thorax -2.57061 -1.58713 3.86201
lowerneck -16.527 2.3533 -8.2973
upperneck 38.9093 1.58422 2.34492
head 16.7277 -1.47833 2.45008
rclavicle 1.9456e-014 -1.2275e-014
rhumerus -2.93655 3.65324 -79.7025
rradius 96.8144
rwrist -6.52019
rhand -29.1844 -11.4661
rfingers 7.12502
rthumb -2.52976 -41.4308
lclavicle 1.9456e-014 -1.2275e-014
lhumerus 5.23404 -10.9956 81.2256
lradius 79.174
lwrist 21.9297
lhand -21.3161 26.5541
lfingers 7.12502
lthumb 5.06917 56.4734
rfemur -29.7754 -4.10902 24.2102
rtibia 34.14
rfoot -10.0178 -6.54478
rtoes 13.5828
lfemur -40.3088 15.0511 -24.9879
ltibia 49.0883
lfoot 4.31616 -15.2125
ltoes -15.675
610
root 2.03715 28.5466 -1.46933 -168.186 -16.3809 -179.884
lowerback 8.46581 -2.18964 -3.31643
upperback 1.7068 -3.26049 1.75661
thorax -2.68368 -1.64426 4.02796
lowerneck -16.601 2.36577 -8.40443
upperneck 38.9902 1.70281 2.19409
head 16.7847 -1.47536 2.42357
rclavicle 4.71865e-014 -3.45388e-015
rhumerus -3.07822 3.90192 -79.3796
rradius 96.7898
rwrist -6.49089
rhand -29.3205 -11.581
rfingers 7.12502
rthumb -2.66121 -41.5441
lclavicle 4.71865e-014 -3.45388e-015
lhumerus 6.29397 -10.9465 81.0926
lradius 79.5598
lwrist 22.0369
lhand -21.5108 26.9426
lfingers 7.12502
lthumb 4.88111 56.8664
rfemur -29.3283 -4.32469 24.3724
rtibia 33.5704
rfoot -9.83208 -6.83875
rtoes 13.8168
lfemur -41.0738 15.478 -24.8996
ltibia 50.7799
lfoot 3.53575 -15.3832
ltoes -15.448
611
root 2.0669 28.5635 -1.46959 -168.259 -16.8432 -179.968
lowerback 8.62705 -2.27221 -3.38435
upperback 1.66191 -3.3784 1.86198
thorax -2.79844 -1.69893 4.19803
lowerneck -16.5446 2.30929 -8.58441
upperneck 38.8868 1.72313 2.13171
head 16.7151 -1.49223 2.43021
rclavicle 1.07779e-014 1.77664e-015
rhumerus -3.21788 4.06368 -79.2086
rradius 96.7709
rwrist -6.38693
rhand -29.3647 -11.6995
rfingers 7.12502
rthumb -2.7039 -41.6621
lclavicle 1.07779e-014 1.77664e-015
lhumerus 7.56466 -10.8854 80.9664
lradius 79.7343
lwrist 22.254
lhand -21.4665 27.0575
lfingers 7.12502
lthumb 4.92393 56.9803
rfemur -28.931 -4.50444 24.39
rtibia 32.9781
rfoot -9.72336 -7.11092
rtoes 14.0927
lfemur -41.9917 15.8898 -25.0135
ltibia 52.6429
lfoot 2.40019 -15.6619
ltoes -14.5637
